# xmcd
#
# Track frame offsets:
#	150
#	18170
#	32445
#	50812
#	67162
#	81185
#	95375
#	116052
#	130295
#	147135
#
# Disc length: 2177
#
# Revision: 1
# Processed by: cddbd v1.5.1PL0 Copyright (c) Steve Scherf et al.
# Submitted via: dBpowerAMP V4.0
# Normalized: r0:TDELIM( - )
#
DISCID=87087f0a
DTITLE=Varoius - Mor Country Hits
DYEAR=1997
DGENRE=Country
TTITLE0=Mindy McCready - Maybe He'll Notice Her Now
TTITLE1=Kenny Chesney - All I Need To Know
TTITLE2=Sara Evans - Three Chords and The Truth
TTITLE3=Jason Sellers - I'm Your Man
TTITLE4=Lonestar - Heartbroke Every Day
TTITLE5=Martina McBride - Cry On The Shoulder Of The Road
TTITLE6=The Thompson Brothers Band - Cactus Wine
TTITLE7=Vince Gill - Turn Me Loose
TTITLE8=Lorrie Morgan - Half Enough
TTITLE9=Keith Whitley - I'm No Stranger To The Rain
EXTD=G.A.C. More Country Hits - Volume 1
EXTT0=
EXTT1=
EXTT2=
EXTT3=
EXTT4=
EXTT5=
EXTT6=
EXTT7=
EXTT8=
EXTT9=
PLAYORDER=
